<svg width="32" height="32" viewBox="0 0 32 32" fill="none" xmlns="http://www.w3.org/2000/svg">
<path d="M0.92319 8.83679C0.911561 8.90001 0.905006 8.96408 0.902892 9.02815V10.3442C0.904584 10.8865 1.24141 11.3713 1.7495 11.5619V13.4982C1.75183 14.1465 2.26162 14.6793 2.90905 14.71V25.8968C2.26162 25.9276 1.75183 26.4605 1.7495 27.1085V29.0392C1.24035 29.2348 0.903738 29.7232 0.902892 30.2683V31.5556C0.902892 31.7956 1.09784 31.9903 1.33783 31.9903H30.6631C30.9031 31.9903 31.0978 31.7956 31.0978 31.5556V30.2683C31.097 29.723 30.7604 29.2346 30.2514 29.0392V27.0971C30.2491 26.4488 29.7391 25.916 29.0919 25.8853V14.71C29.7391 14.6793 30.2491 14.1465 30.2514 13.4982V11.5619C30.7593 11.3713 31.0961 10.8865 31.0978 10.3442V9.03681C31.0959 8.97275 31.0892 8.90868 31.0775 8.84546C31.2962 8.9423 31.5518 8.84377 31.6486 8.62514C31.7455 8.40672 31.6469 8.15109 31.4285 8.05403L16.2005 0.0503313C16.0734 -0.0166957 15.9216 -0.0166957 15.7945 0.0503313L0.5667 8.04537C0.354201 8.15764 0.272796 8.42046 0.384648 8.63296C0.486986 8.82706 0.717881 8.9146 0.92319 8.83679ZM2.61916 12.3154V11.6458H7.63414V12.3097L2.61916 12.3154ZM13.7856 14.713V25.8968C13.1382 25.9276 12.6284 26.4605 12.6261 27.1085V28.958H8.49788V27.1085C8.49555 26.4605 7.98577 25.9276 7.33833 25.8968V14.71C7.98577 14.6793 8.49555 14.1465 8.49788 13.4982V11.6458H12.6201V13.4955C12.6212 14.1448 13.1314 14.6789 13.7799 14.71L13.7856 14.713ZM13.4957 12.3154V11.6458H18.5109V12.3097L13.4957 12.3154ZM24.6624 14.713V25.8968C24.015 25.9276 23.505 26.4605 23.5026 27.1085V28.958H19.3747V27.1085C19.3723 26.4605 18.8623 25.9276 18.2151 25.8968V14.71C18.8623 14.6793 19.3723 14.1465 19.3747 13.4982V11.6458H23.4969V13.4955C23.4978 14.1448 24.008 14.6789 24.6565 14.71L24.6624 14.713ZM24.3725 12.3154V11.6458H29.3875V12.3097L24.3725 12.3154ZM29.3875 28.2943V28.958H24.3666V28.2943H29.3875ZM18.5109 28.2943V28.958H13.49V28.2943H18.5109ZM14.2146 13.849H13.8378C13.6456 13.849 13.49 13.6934 13.49 13.5012V13.1851H18.505V13.5012C18.505 13.6934 18.3494 13.849 18.1572 13.849H14.2146ZM17.3484 14.7187V25.891H14.6496V14.7187H17.3484ZM14.2146 26.7607H18.1572C18.3494 26.7607 18.505 26.9163 18.505 27.1085V27.4246H13.49V27.1085C13.49 26.9163 13.6456 26.7607 13.8378 26.7607H14.2146ZM7.62843 28.2943V28.958H2.61324V28.2943H7.62843ZM2.61324 13.5099V13.1851H7.62843V13.5012C7.62843 13.6934 7.47281 13.849 7.2804 13.849H2.9524C2.76252 13.8444 2.61155 13.6881 2.61324 13.4982V13.5099ZM6.46888 14.7273V25.891H3.77279V14.7187L6.46888 14.7273ZM2.61324 27.1174C2.61324 26.925 2.76887 26.7694 2.96107 26.7694H7.2804C7.47281 26.7694 7.62843 26.925 7.62843 27.1174V27.4333H2.61324V27.1174ZM30.2282 30.2859V31.138H1.76684V30.2859C1.76684 30.0376 1.96792 29.8363 2.21616 29.8363H29.7789C30.0235 29.8363 30.2235 30.0323 30.2282 30.277V30.2859ZM29.3818 27.1174V27.4333H24.3666V27.1174C24.3666 26.925 24.5222 26.7694 24.7144 26.7694H29.0426C29.228 26.774 29.3771 26.9231 29.3818 27.1085V27.1174ZM25.5261 25.8997V14.7187H28.225V25.891L25.5261 25.8997ZM29.3818 13.5099C29.3818 13.7021 29.2261 13.8577 29.0339 13.8577H24.7174C24.5252 13.8577 24.3695 13.7021 24.3695 13.5099V13.1851H29.3845L29.3818 13.5099ZM15.9975 0.919991L28.9468 7.72651H3.04818L15.9975 0.919991ZM1.76684 9.03681C1.76684 8.79683 1.96158 8.60209 2.20157 8.60209H29.7934C30.0334 8.60209 30.2282 8.79683 30.2282 9.03681V10.353C30.2282 10.593 30.0334 10.7878 29.7934 10.7878H2.20157C1.96158 10.7878 1.76684 10.593 1.76684 10.353V9.03681Z" fill="#4F4F4F"/>
</svg>
