<svg width="16" height="24" viewBox="0 0 16 24" fill="none" xmlns="http://www.w3.org/2000/svg">
<path d="M15.2226 12.4839C14.6166 11.3009 13.1416 10.8519 11.6976 11.9869C11.6836 11.9979 10.2536 13.0949 8.00263 13.0949C5.75163 13.0949 4.32163 11.9969 4.30763 11.9869C2.86963 10.8509 1.38263 11.2959 0.780634 12.4869C0.778634 12.4899 0.777634 12.4929 0.775634 12.4969C-0.119366 14.3279 1.35863 15.2819 2.54763 16.0489C3.28263 16.5219 4.22263 16.8789 5.35163 17.1149L2.14663 20.3269C0.211634 22.2578 3.24363 25.3048 5.19863 23.3938L8.01263 20.5659C9.09563 21.6509 10.1046 22.6639 10.8326 23.4048C12.7626 25.2998 15.8146 22.3058 13.8906 20.3309C11.5956 18.0379 11.1016 17.5429 10.6676 17.1159C13.0636 16.6029 16.3966 14.9219 15.2226 12.4839V12.4839ZM9.19763 15.8389C8.67963 15.5899 7.99163 16.5359 8.55763 17.1239L8.56363 17.1299C8.56463 17.1309 8.56663 17.1329 8.56763 17.1339C8.56963 17.1359 8.57063 17.1379 8.57263 17.1389C8.86063 17.4259 12.7356 21.2969 12.8216 21.3839C13.3596 21.9369 12.4116 22.8508 11.8906 22.3429C10.9606 21.3969 9.48564 19.9199 8.54064 18.9729C8.24864 18.6799 7.77163 18.6779 7.47863 18.9729L4.14063 22.3268C3.61163 22.8438 2.66863 21.9209 3.20463 21.3859L7.44863 17.1339C7.45063 17.1319 7.45264 17.1299 7.45364 17.1279C7.98064 16.6099 7.44864 15.6499 6.82864 15.8329C5.35163 15.6599 4.15463 15.2989 3.35763 14.7869C1.81763 13.7919 1.89463 13.6169 2.11763 13.1599C2.76563 11.9189 3.91363 14.5949 8.00064 14.5949C10.7996 14.5949 12.5556 13.2199 12.6246 13.1649C13.0806 12.8069 13.6156 12.6399 13.8786 13.1509C14.1016 13.6139 14.1846 13.7869 12.6406 14.7899C11.5866 15.4609 10.0966 15.7319 9.19763 15.8389Z" fill="white"/>
<path d="M7.99904 9.99696C9.95304 9.99696 11.542 8.40496 11.542 6.44896C11.542 4.48496 9.95304 2.88696 7.99904 2.88696C6.04604 2.88696 4.45703 4.48496 4.45703 6.44896C4.45603 8.40496 6.04503 9.99696 7.99904 9.99696V9.99696ZM7.99904 4.38696C9.12504 4.38696 10.042 5.31196 10.042 6.44896C10.042 7.57796 9.12504 8.49696 7.99904 8.49696C6.87304 8.49696 5.95604 7.57796 5.95604 6.44796C5.95604 5.31196 6.87204 4.38696 7.99904 4.38696V4.38696Z" fill="white"/>
<path d="M7.99901 12.883C11.548 12.883 14.436 9.996 14.436 6.448C14.435 2.893 11.548 0 7.99901 0C4.45001 0 1.56201 2.893 1.56201 6.448C1.56201 9.996 4.44901 12.883 7.99901 12.883V12.883ZM7.99901 1.5C10.721 1.5 12.936 3.72 12.936 6.448C12.936 9.169 10.722 11.383 7.99901 11.383C5.27601 11.383 3.06201 9.169 3.06201 6.448C3.06201 3.72 5.27601 1.5 7.99901 1.5V1.5Z" fill="white"/>
</svg>
