<svg width="24" height="16" viewBox="0 0 24 16" fill="none" xmlns="http://www.w3.org/2000/svg">
<path d="M12.145 15.5C15.617 15.5 14.379 13.302 14.647 12.67C14.643 12.198 14.639 11.744 14.655 11.468C14.875 11.53 15.394 11.793 16.466 12.835C18.121 14.505 18.544 15.5 19.881 15.5H22.342C23.122 15.5 23.528 15.177 23.731 14.906C23.927 14.644 24.119 14.184 23.909 13.468C23.36 11.744 20.158 8.767 19.959 8.453C19.989 8.395 20.037 8.318 20.062 8.278H20.06C20.692 7.443 23.104 3.829 23.459 2.383C23.46 2.381 23.461 2.378 23.461 2.375C23.653 1.715 23.477 1.287 23.295 1.045C23.021 0.683 22.585 0.5 21.996 0.5H19.535C18.711 0.5 18.086 0.915 17.77 1.672C17.241 3.017 15.755 5.783 14.641 6.762C14.607 5.375 14.63 4.316 14.648 3.529C14.684 1.994 14.8 0.5 13.207 0.5H9.339C8.341 0.5 7.386 1.59 8.42 2.884C9.324 4.018 8.745 4.65 8.94 7.796C8.18 6.981 6.828 4.78 5.872 1.967C5.604 1.206 5.198 0.501 4.055 0.501H1.594C0.596 0.501 0 1.045 0 1.956C0 4.002 4.529 15.5 12.145 15.5V15.5ZM4.055 2.001C4.272 2.001 4.294 2.001 4.455 2.458C5.434 5.341 7.63 9.607 9.234 9.607C10.439 9.607 10.439 8.372 10.439 7.907L10.438 4.205C10.372 2.98 9.926 2.37 9.633 2L13.141 2.004C13.143 2.021 13.121 6.099 13.151 7.087C13.151 8.49 14.265 9.294 16.004 7.534C17.839 5.463 19.108 2.367 19.159 2.241C19.234 2.061 19.299 2 19.535 2H21.996H22.006C22.005 2.003 22.005 2.006 22.004 2.009C21.779 3.059 19.558 6.405 18.815 7.444C18.803 7.46 18.792 7.477 18.781 7.494C18.454 8.028 18.188 8.618 18.826 9.448H18.827C18.885 9.518 19.036 9.682 19.256 9.91C19.94 10.616 22.286 13.03 22.494 13.99C22.356 14.012 22.206 13.996 19.881 14.001C19.386 14.001 18.999 13.261 17.522 11.771C16.194 10.479 15.332 9.951 14.547 9.951C13.023 9.951 13.134 11.188 13.148 12.684C13.153 14.306 13.143 13.793 13.154 13.895C13.065 13.93 12.81 14 12.145 14C5.8 14 1.668 3.929 1.509 2.004C1.564 1.999 2.321 2.002 4.055 2.001V2.001Z" fill="white"/>
</svg>
