<svg width="72" height="72" viewBox="0 0 72 72" fill="none" xmlns="http://www.w3.org/2000/svg">
<path d="M46.5469 69.8906V44.4375C46.5469 43.2719 45.6031 42.3281 44.4375 42.3281H27.5625C26.3969 42.3281 25.4531 43.2719 25.4531 44.4375V69.8906C25.4531 71.0563 26.3969 72 27.5625 72H44.4375C45.6031 72 46.5469 71.0563 46.5469 69.8906Z" fill="white"/>
<path d="M69.8906 59.2031H52.875C51.7094 59.2031 50.7656 60.1469 50.7656 61.3125V69.8906C50.7656 71.0563 51.7094 72 52.875 72H69.8906C71.0563 72 72 71.0563 72 69.8906V61.3125C72 60.1469 71.0563 59.2031 69.8906 59.2031Z" fill="white"/>
<path d="M0 69.8906C0 71.0563 0.943726 72 2.10938 72H19.125C20.2906 72 21.2344 71.0563 21.2344 69.8906V52.875C21.2344 51.7094 20.2906 50.7656 19.125 50.7656H2.10938C0.943726 50.7656 0 51.7094 0 52.875V69.8906Z" fill="white"/>
<path d="M31.7812 4.21875C31.7812 6.54456 33.6742 8.4375 36 8.4375C38.3258 8.4375 40.2188 6.54456 40.2188 4.21875C40.2188 1.89294 38.3258 0 36 0C33.6742 0 31.7812 1.89294 31.7812 4.21875Z" fill="white"/>
<path d="M12.7969 8.4375C12.7969 10.7633 14.6898 12.6562 17.0156 12.6562C19.3414 12.6562 21.2344 10.7633 21.2344 8.4375C21.2344 6.11169 19.3414 4.21875 17.0156 4.21875C14.6898 4.21875 12.7969 6.11169 12.7969 8.4375Z" fill="white"/>
<path d="M59.2031 8.4375C59.2031 6.11169 57.3102 4.21875 54.9844 4.21875C52.6586 4.21875 50.7656 6.11169 50.7656 8.4375C50.7656 10.7633 52.6586 12.6562 54.9844 12.6562C57.3102 12.6562 59.2031 10.7633 59.2031 8.4375Z" fill="white"/>
<path d="M50.7245 36.4142L54.6115 16.8371C52.9003 16.7607 51.3276 16.1834 50.0285 15.2331L44.699 23.2278L39.1081 12.046C38.144 12.4299 37.0998 12.6562 36.0001 12.6562C34.9003 12.6562 33.8561 12.4299 32.892 12.046L27.3011 23.2278L21.9716 15.2331C20.6725 16.1834 19.0998 16.7607 17.3887 16.8371L21.2756 36.4142C21.4734 37.3986 22.3386 38.1094 23.3438 38.1094H48.6563C49.6616 38.1094 50.5267 37.3986 50.7245 36.4142Z" fill="white"/>
</svg>
