<svg width="72" height="72" viewBox="0 0 72 72" fill="none" xmlns="http://www.w3.org/2000/svg">
<path d="M10.6875 25.3125C7.19824 25.3125 4.35938 28.1514 4.35938 31.6406C4.35938 35.1299 7.19824 37.9688 10.6875 37.9688C14.1768 37.9688 17.0156 35.1299 17.0156 31.6406C17.0156 30.6667 16.7761 29.7548 16.3812 28.9297L24.8516 20.4593C25.6767 20.8542 26.5886 21.0938 27.5625 21.0938C29.2643 21.0938 30.8046 20.4109 31.9427 19.3145L38.1868 22.4363C38.1555 22.6906 38.1094 22.9406 38.1094 23.2031C38.1094 26.6924 40.9482 29.5312 44.4375 29.5312C47.9268 29.5312 50.7656 26.6924 50.7656 23.2031C50.7656 22.2292 50.5261 21.3173 50.1312 20.4922L58.6016 12.0218C59.4267 12.4167 60.3386 12.6562 61.3125 12.6562C64.8018 12.6562 67.6406 9.81738 67.6406 6.32812C67.6406 2.83887 64.8018 0 61.3125 0C57.8232 0 54.9844 2.83887 54.9844 6.32812C54.9844 7.30206 55.2239 8.21393 55.6188 9.039L47.1484 17.5095C46.3233 17.1145 45.4114 16.875 44.4375 16.875C42.7357 16.875 41.1954 17.5578 40.0573 18.6542L33.8132 15.5325C33.8445 15.2781 33.8906 15.0282 33.8906 14.7656C33.8906 11.2764 31.0518 8.4375 27.5625 8.4375C24.0732 8.4375 21.2344 11.2764 21.2344 14.7656C21.2344 15.7396 21.4739 16.6514 21.8688 17.4765L13.3984 25.947C12.5733 25.552 11.6614 25.3125 10.6875 25.3125Z" fill="white"/>
<path d="M69.8906 67.7812H67.7812V23.2031C67.7812 22.0375 66.8375 21.0938 65.6719 21.0938H57.0938C55.9281 21.0938 54.9844 22.0375 54.9844 23.2031V67.7812H50.7656V40.0781C50.7656 38.9125 49.8219 37.9688 48.6562 37.9688H40.2188C39.0531 37.9688 38.1094 38.9125 38.1094 40.0781V67.7812H33.8906V31.6406C33.8906 30.475 32.9469 29.5312 31.7812 29.5312H23.3438C22.1781 29.5312 21.2344 30.475 21.2344 31.6406V67.7812H17.0156V48.5156C17.0156 47.35 16.0719 46.4062 14.9062 46.4062H6.32812C5.16248 46.4062 4.21875 47.35 4.21875 48.5156V67.7812H2.10938C0.943726 67.7812 0 68.725 0 69.8906C0 71.0563 0.943726 72 2.10938 72H69.8906C71.0563 72 72 71.0563 72 69.8906C72 68.725 71.0563 67.7812 69.8906 67.7812Z" fill="white"/>
</svg>
