<svg width="48" height="48" viewBox="0 0 48 48" fill="none" xmlns="http://www.w3.org/2000/svg">
<path d="M22.1488 32.5561C22.5154 32.1895 22.5154 31.5963 22.1488 31.2297C21.7819 30.8642 21.1875 30.8642 20.8202 31.2297C20.454 31.5963 20.454 32.1895 20.8202 32.5561C21.1875 32.9216 21.7819 32.9216 22.1488 32.5561Z" fill="#166CB7"/>
<path d="M17.7017 10.3096C17.7017 15.9943 22.3356 20.6195 28.0314 20.6195C33.7272 20.6195 38.3612 15.9943 38.3612 10.3096C38.3612 4.62488 33.7272 0 28.0314 0C22.3356 0 17.7017 4.62488 17.7017 10.3096ZM36.4832 10.3096C36.4832 14.9608 32.6918 18.7449 28.0314 18.7449C23.3711 18.7449 19.5796 14.9608 19.5796 10.3096C19.5796 5.65869 23.3711 1.87463 28.0314 1.87463C32.6918 1.87463 36.4832 5.65869 36.4832 10.3096Z" fill="#166CB7"/>
<path d="M10.8636 47.7228C11.2276 48.089 11.8201 48.093 12.1889 47.7305L16.7417 43.2539C17.5152 42.4819 17.7504 41.339 17.4103 40.3455L18.3896 39.4028C18.9169 38.8945 19.6111 38.6144 20.345 38.6144H32.829C35.0437 38.6144 37.1371 37.7655 38.724 36.2241C38.7893 36.1608 38.2283 36.8203 47.2408 26.0698C48.5775 24.4914 48.3775 22.1213 46.7946 20.7857C45.2216 19.4626 42.8652 19.6527 41.5248 21.204L35.9834 26.8883C35.2837 26.0288 34.2167 25.493 33.0638 25.493H22.592C21.1019 24.8708 19.5209 24.5559 17.8895 24.5559C13.3675 24.5559 9.41897 26.6404 7.29996 30.5486C6.40723 30.3797 5.46569 30.6493 4.78835 31.3253L0.321001 35.7971C-0.0437252 36.1622 -0.044459 36.7529 0.319533 37.1191L10.8636 47.7228ZM17.8891 26.4302C19.3275 26.4302 20.7181 26.7191 22.0233 27.2889C22.1422 27.3409 22.2702 27.3677 22.3998 27.3677H33.0638C34.082 27.3677 34.9421 28.1964 34.9421 29.2419C34.9421 30.2757 34.0996 31.1166 33.0638 31.1166H25.402C24.8835 31.1166 24.463 31.5362 24.463 32.0537C24.463 32.5715 24.8835 32.9908 25.402 32.9908H33.0638C35.1351 32.9908 36.82 31.3092 36.82 29.2419C36.82 29.0771 36.8083 28.9138 36.787 28.7519C42.1474 23.2525 42.9033 22.4798 42.9356 22.4414C43.6049 21.6529 44.793 21.553 45.5834 22.218C46.3745 22.8856 46.4746 24.0707 45.8035 24.8635L37.3807 34.9131C36.1508 36.0915 34.5359 36.7401 32.829 36.7401H20.345C19.1216 36.7401 17.9636 37.207 17.0852 38.0541L16.2871 38.8227L8.93022 31.4806C10.6496 28.2612 13.876 26.4302 17.8891 26.4302ZM6.11736 32.6499C6.42704 32.3408 6.90258 32.2851 7.28015 32.5181C7.4427 32.6169 6.97597 32.1929 15.4138 40.6025C15.7892 40.9772 15.769 41.5741 15.419 41.9235L11.5376 45.7397L2.31048 36.4603L6.11736 32.6499Z" fill="#166CB7"/>
<path d="M26.9046 4.6864V5.78467C25.8116 6.17139 25.0263 7.21326 25.0263 8.4353C25.0263 9.98547 26.29 11.2471 27.8436 11.2471C28.3613 11.2471 28.7826 11.6675 28.7826 12.1842C28.7826 12.7009 28.3613 13.1213 27.8436 13.1213C27.4426 13.1213 27.0092 12.8698 26.6243 12.4124C26.2904 12.0161 25.6982 11.9652 25.3012 12.2981C24.9041 12.6313 24.8528 13.2224 25.1867 13.6187C25.6886 14.2145 26.279 14.6298 26.9046 14.8392V15.9331C26.9046 16.4509 27.3251 16.8702 27.8436 16.8702C28.3621 16.8702 28.7826 16.4509 28.7826 15.9331V14.8348C29.8757 14.4478 30.6609 13.4059 30.6609 12.1842C30.6609 10.6337 29.3972 9.37244 27.8436 9.37244C27.3259 9.37244 26.9046 8.95203 26.9046 8.4353C26.9046 7.91858 27.3259 7.4978 27.8436 7.4978C28.1764 7.4978 28.5276 7.66736 28.8593 7.98779C29.2321 8.34778 29.8265 8.33789 30.1872 7.96619C30.5479 7.59412 30.538 7.00085 30.1655 6.64087C29.6889 6.18054 29.2119 5.92017 28.7826 5.77808V4.6864C28.7826 4.16858 28.3621 3.7489 27.8436 3.7489C27.3251 3.7489 26.9046 4.16858 26.9046 4.6864Z" fill="#166CB7"/>
</svg>
