<svg width="48" height="48" viewBox="0 0 48 48" fill="none" xmlns="http://www.w3.org/2000/svg">
<path d="M20.5265 20.7851C19.7357 20.5725 18.8891 20.5727 18.0988 20.7851C17.5987 20.9196 17.3023 21.4339 17.4366 21.9339C17.5492 22.3525 17.9278 22.6284 18.3415 22.6284C18.422 22.6284 18.504 22.6179 18.5854 22.5959C19.0584 22.4687 19.5664 22.4687 20.0399 22.5959C20.5399 22.7304 21.0542 22.4338 21.1885 21.9339C21.3229 21.4339 21.0265 20.9196 20.5265 20.7851Z" fill="#166CB7"/>
<path d="M29.9017 20.7851C29.1112 20.5725 28.2647 20.5725 27.4739 20.7851C26.9739 20.9196 26.6774 21.4339 26.8118 21.9339C26.9463 22.4337 27.4609 22.7302 27.9606 22.5958C28.4339 22.4686 28.9419 22.4686 29.415 22.5958C29.4965 22.6178 29.5783 22.6283 29.6589 22.6283C30.0726 22.6283 30.4512 22.3524 30.5636 21.9339C30.6981 21.4339 30.4016 20.9196 29.9017 20.7851Z" fill="#166CB7"/>
<path d="M25.4061 27.657C24.9793 27.9034 24.4932 28.0338 24.0003 28.0338C23.5072 28.0338 23.0211 27.9034 22.5942 27.657C22.1458 27.3978 21.5725 27.5513 21.3135 27.9997C21.0545 28.4481 21.208 29.0214 21.6563 29.2805C22.3679 29.6916 23.1784 29.9087 24.0003 29.9087C24.8221 29.9087 25.6325 29.6916 26.344 29.2805C26.7924 29.0214 26.9459 28.4481 26.687 27.9997C26.4278 27.5515 25.8546 27.3978 25.4061 27.657Z" fill="#166CB7"/>
<path d="M11.4368 12.9883C11.5894 11.9595 11.9228 10.977 12.4274 10.0676C12.6787 9.61475 12.5153 9.044 12.0626 8.79275C11.6097 8.5415 11.0392 8.70481 10.788 9.15772C10.1734 10.2648 9.76778 11.461 9.58206 12.7131C9.50603 13.2252 9.85966 13.7021 10.3718 13.778C10.4185 13.7849 10.4648 13.7882 10.5107 13.7882C10.9675 13.7883 11.3678 13.4537 11.4368 12.9883Z" fill="#166CB7"/>
<path d="M13.1965 8.43904C13.4345 8.43904 13.6727 8.34876 13.8554 8.1682L13.8748 8.1488C14.2389 7.78055 14.2355 7.18692 13.8673 6.82289C13.4991 6.45886 12.9055 6.46252 12.5414 6.83058L12.5372 6.8348C12.169 7.19883 12.1656 7.79245 12.5296 8.1607C12.713 8.34623 12.9547 8.43904 13.1965 8.43904Z" fill="#166CB7"/>
<path d="M0.959342 46.1246H0.937498C0.419718 46.1246 0 46.5445 0 47.0621C0 47.5799 0.419718 47.9996 0.937498 47.9996H0.959342C1.47712 47.9996 1.89684 47.5799 1.89684 47.0621C1.89684 46.5444 1.47722 46.1246 0.959342 46.1246Z" fill="#166CB7"/>
<path d="M47.0625 46.1246H47.0404C46.5226 46.1246 46.1029 46.5445 46.1029 47.0621C46.1029 47.5799 46.5226 47.9996 47.0404 47.9996H47.0625C47.5803 47.9996 48 47.5799 48 47.0621C48 46.5444 47.5803 46.1246 47.0625 46.1246Z" fill="#166CB7"/>
<path d="M44.3467 46.1245H43.6646C43.3529 39.5659 39.785 33.611 34.1332 30.2021C34.3954 29.8104 34.6361 29.4031 34.8525 28.9813C35.7532 29.6827 36.8729 30.0778 38.0423 30.0778C40.9041 30.0778 43.2324 27.7497 43.2324 24.8878C43.2324 23.0351 42.2239 21.3247 40.6549 20.4053C42.6057 12.1619 39.2872 7.87967 37.0865 6.03871C34.4955 3.87112 31.4912 3.28715 29.6267 3.7664C26.9883 1.3335 23.5837 0 19.9737 0C12.1132 0 5.71838 6.39496 5.71838 14.2553C5.71838 16.4256 6.21732 18.5703 7.1671 20.515C5.70057 21.4569 4.76804 23.1065 4.76804 24.888C4.76804 27.7499 7.09632 30.078 9.95812 30.078C11.1277 30.078 12.2475 29.6827 13.1482 28.9813C13.3644 29.4029 13.605 29.8102 13.8672 30.2017C8.21494 33.6105 4.64673 39.5657 4.33492 46.1247H3.65307C3.1352 46.1247 2.71558 46.5446 2.71558 47.0622C2.71558 47.58 3.1352 47.9997 3.65307 47.9997H5.24617C5.24738 47.9997 5.24851 47.9999 5.24973 47.9999C5.25095 47.9999 5.25207 47.9997 5.25329 47.9997H10.8713C10.8726 47.9997 10.8737 47.9999 10.8749 47.9999C10.8761 47.9999 10.8772 47.9997 10.8785 47.9997H37.1213C37.1226 47.9997 37.1236 47.9999 37.1249 47.9999C37.1263 47.9999 37.1273 47.9997 37.1286 47.9997H42.7463C42.7475 47.9997 42.7486 47.9999 42.7499 47.9999C42.7512 47.9999 42.7523 47.9997 42.7535 47.9997H44.3467C44.8645 47.9997 45.2842 47.58 45.2842 47.0622C45.2842 46.5443 44.8645 46.1245 44.3467 46.1245ZM9.93741 46.1244H6.21198C6.40538 42.4464 7.73185 38.9816 9.93741 36.1498V46.1244ZM10.8455 19.1942C11.028 19.3737 11.2654 19.463 11.5025 19.463C11.6076 19.463 11.7124 19.4444 11.8127 19.4094V23.4372C11.8127 24.7279 12.015 25.9721 12.3886 27.1405C11.7662 27.812 10.8869 28.2029 9.95822 28.2029C8.13029 28.2029 6.64313 26.7157 6.64313 24.8878C6.64313 23.5227 7.5 22.2781 8.77538 21.7909C8.91525 21.7375 9.03413 21.6536 9.12909 21.5506C9.12909 21.5504 9.12928 21.5504 9.12928 21.5502C9.14953 21.5282 9.16856 21.5055 9.18638 21.4818C9.18731 21.4807 9.18797 21.4799 9.18891 21.4787C9.20606 21.4559 9.2221 21.4322 9.2371 21.4079C9.23822 21.4062 9.23925 21.4046 9.24028 21.4029C9.25481 21.3789 9.26831 21.3544 9.28069 21.3291C9.28172 21.3272 9.28266 21.3253 9.2836 21.3234C9.29588 21.2981 9.30684 21.2723 9.31678 21.2461C9.31753 21.2443 9.31828 21.2425 9.31884 21.2406C9.32859 21.2143 9.33713 21.1876 9.34463 21.1605C9.3451 21.1586 9.34566 21.1568 9.34613 21.1549C9.35325 21.1282 9.35916 21.1011 9.36385 21.0736C9.36422 21.0713 9.36478 21.0689 9.36516 21.0665C9.36956 21.0402 9.37256 21.0137 9.37472 20.987C9.375 20.983 9.37547 20.9791 9.37566 20.9751C9.37734 20.9506 9.37763 20.9259 9.37735 20.9011C9.37735 20.8948 9.37735 20.8883 9.37716 20.8817C9.37631 20.86 9.37463 20.838 9.37219 20.816C9.37106 20.8063 9.37022 20.7966 9.36891 20.7871C9.36628 20.7682 9.36291 20.7494 9.35906 20.7306C9.35653 20.7178 9.35391 20.7052 9.35081 20.6924C9.34688 20.6762 9.34219 20.6603 9.33741 20.6442C9.33291 20.6296 9.32822 20.6148 9.32306 20.6002C9.32081 20.5936 9.31913 20.587 9.31669 20.5804C9.31341 20.5718 9.3091 20.5637 9.30563 20.5554C9.29972 20.5413 9.29363 20.5272 9.28697 20.5131C9.27947 20.4974 9.27159 20.482 9.26325 20.4668C9.25941 20.4597 9.25641 20.4526 9.25238 20.4453C8.16713 18.5656 7.59366 16.4251 7.59366 14.2551C7.59366 7.42864 13.1474 1.87481 19.974 1.87481C23.2808 1.87481 26.3898 3.16256 28.7282 5.50105C28.733 5.50583 28.7383 5.50968 28.7431 5.51446C28.7567 5.52749 28.7707 5.54005 28.785 5.55233C28.7953 5.56115 28.8057 5.56958 28.8163 5.57774C28.8291 5.58758 28.8421 5.59715 28.8553 5.60633C28.8685 5.61571 28.8817 5.62443 28.8953 5.63286C28.9065 5.6398 28.9177 5.64646 28.9292 5.65302C28.945 5.66202 28.961 5.67065 28.9772 5.67861C28.9874 5.68358 28.9977 5.68818 29.008 5.69268C29.0253 5.70055 29.043 5.70805 29.0609 5.71461C29.0712 5.71865 29.0817 5.72211 29.0922 5.72558C29.1098 5.73158 29.1276 5.73711 29.1456 5.74208C29.1574 5.74518 29.1693 5.74799 29.1812 5.75071C29.1979 5.75455 29.2147 5.75821 29.2315 5.76111C29.2454 5.76346 29.2594 5.76533 29.2735 5.76711C29.2885 5.76899 29.3035 5.77077 29.3187 5.7719C29.3344 5.77321 29.3503 5.77377 29.3662 5.77424C29.38 5.77461 29.3938 5.7748 29.4076 5.77461C29.4242 5.77424 29.4406 5.7733 29.4571 5.77227C29.4708 5.77133 29.4845 5.7703 29.4982 5.76861C29.5141 5.76674 29.5298 5.7644 29.5456 5.76186C29.5606 5.75933 29.5755 5.75652 29.5905 5.75324C29.6043 5.75033 29.6182 5.74686 29.6319 5.74321C29.6491 5.73861 29.6659 5.73365 29.6828 5.72821C29.6943 5.72436 29.7059 5.72033 29.7174 5.71611C29.736 5.70918 29.7542 5.70168 29.7725 5.69361C29.7782 5.69108 29.7841 5.68921 29.7898 5.68649C30.8511 5.18774 33.5594 5.53236 35.8836 7.47674C37.8074 9.08605 40.7255 12.9402 38.6549 20.6703C38.638 20.733 38.6278 20.796 38.624 20.8588C38.6234 20.8683 38.6239 20.8778 38.6235 20.8874C38.623 20.9083 38.6221 20.9293 38.623 20.9502C38.6235 20.9661 38.6255 20.9817 38.6269 20.9976C38.6282 21.0119 38.6289 21.0264 38.6308 21.0406C38.6332 21.0587 38.637 21.0766 38.6406 21.0945C38.6428 21.1062 38.6445 21.1179 38.6473 21.1294C38.6515 21.1473 38.657 21.1648 38.6623 21.1824C38.6655 21.1937 38.6683 21.2053 38.6721 21.2164C38.6775 21.2322 38.6841 21.2474 38.6902 21.2627C38.6954 21.2754 38.6999 21.2881 38.7054 21.3006C38.7111 21.3135 38.718 21.3257 38.7244 21.3383C38.7317 21.3526 38.7385 21.3673 38.7465 21.3813C38.7523 21.3913 38.7588 21.4006 38.7649 21.4105C38.7748 21.4264 38.7844 21.4424 38.7953 21.4577C38.8008 21.4654 38.8071 21.4727 38.8127 21.4802C38.8252 21.4967 38.8375 21.5132 38.851 21.529C38.857 21.5359 38.8639 21.5424 38.8702 21.5491C38.8842 21.5645 38.8982 21.5799 38.9133 21.5943C38.9217 21.6024 38.9309 21.6095 38.9396 21.6172C38.9534 21.6295 38.9672 21.6421 38.9819 21.6537C38.9956 21.6643 39.0103 21.674 39.0246 21.6839C39.0353 21.6914 39.0456 21.6994 39.0566 21.7064C39.0801 21.7212 39.1047 21.735 39.1296 21.7477C39.1323 21.7492 39.1348 21.7508 39.1374 21.7521C39.166 21.7666 39.1954 21.7796 39.2258 21.7911C40.5007 22.2785 41.3571 23.5228 41.3571 24.8876C41.3571 26.7155 39.87 28.2027 38.042 28.2027C37.1133 28.2027 36.2343 27.8117 35.6117 27.1407C35.9852 25.9723 36.1877 24.7279 36.1877 23.4372V18.6382C36.214 18.6697 36.2403 18.7001 36.2668 18.7329C36.5912 19.1367 37.1814 19.2007 37.5849 18.8761C37.9884 18.5518 38.0524 17.9616 37.728 17.558C37.0561 16.7223 36.3658 16.1985 35.7019 15.8039C35.6999 15.8028 35.6981 15.8015 35.696 15.8004C35.3174 15.5758 34.9472 15.3926 34.5943 15.2185C33.0172 14.4405 31.6552 13.7683 30.2794 9.67358C30.1555 9.30458 29.8162 9.05051 29.4272 9.03542C29.0388 9.01911 28.6803 9.24711 28.5279 9.60542C26.4907 14.3974 23.8309 14.4286 20.4636 14.4679C17.4817 14.5029 14.1022 14.5425 10.8338 17.8685C10.4709 18.2378 10.4762 18.8313 10.8455 19.1942ZM23.0628 46.1244H11.8124V34.0954C12.7018 33.261 13.6837 32.5108 14.748 31.8606L17.5501 39.6912C17.6536 39.9804 17.8919 40.2005 18.1884 40.2805C18.269 40.3022 18.3512 40.3129 18.4326 40.3129C18.6511 40.3129 18.8656 40.2366 19.0365 40.0926L23.0628 36.7022V46.1244ZM17.3868 33.6696C18.6756 34.5056 20.1317 35.1043 21.6929 35.4048L18.861 37.7894L17.3868 33.6696ZM16.0542 30.0031C16.0503 29.9968 16.0457 29.991 16.0416 29.9848C16.0346 29.9737 16.0273 29.9631 16.0198 29.9524C16.0096 29.9378 15.9989 29.9234 15.9879 29.9096C15.9792 29.8986 15.9703 29.8881 15.9614 29.8777C15.9506 29.8652 15.9396 29.8533 15.9284 29.8416C15.9199 29.8328 15.9113 29.824 15.9026 29.8156C15.2509 28.9901 14.7231 28.0628 14.3461 27.062C14.3339 27.0199 14.3181 26.9787 14.3001 26.9386C13.9041 25.845 13.6879 24.6661 13.6879 23.4375V17.9055C15.9097 16.397 18.1449 16.3705 20.4859 16.343C23.6148 16.3064 26.8372 16.2689 29.2801 12.2584C30.722 15.399 32.3246 16.1897 33.7649 16.9003C33.9525 16.9929 34.1347 17.083 34.313 17.1762V23.4375C34.313 24.6652 34.0968 25.8435 33.7015 26.9364C33.6825 26.9785 33.6659 27.0217 33.6534 27.0659C33.277 28.0638 32.7507 28.9885 32.1012 29.8121C32.0883 29.8244 32.0759 29.8372 32.0639 29.8499C32.0583 29.8558 32.0533 29.8615 32.0479 29.8674C32.0331 29.8841 32.0188 29.901 32.0051 29.9188C31.9996 29.926 31.9943 29.9333 31.989 29.9404C31.9761 29.958 31.9638 29.9761 31.9521 29.9948C31.95 29.9983 31.9473 30.0015 31.9452 30.005C30.0521 32.2912 27.1934 33.7499 24.0004 33.7499C20.8066 33.7499 17.9473 32.2904 16.0542 30.0031ZM30.6136 33.6699L29.1395 37.7893L26.3078 35.4047C27.8687 35.1045 29.3247 34.5057 30.6136 33.6699ZM36.1875 46.1246H24.9378V36.7025L28.9637 40.0927C29.1347 40.2366 29.3492 40.313 29.5676 40.313C29.6492 40.313 29.7313 40.3024 29.8118 40.2805C30.1082 40.2005 30.3468 39.9805 30.4503 39.6913L33.2522 31.8611C34.3165 32.5113 35.298 33.2615 36.1875 34.0957V46.1246ZM38.0624 46.1245V36.15C40.2679 38.9817 41.5942 42.4464 41.7876 46.1245H38.0624Z" fill="#166CB7"/>
<path d="M27.3612 41.2363H27.3391C26.8214 41.2363 26.4016 41.6562 26.4016 42.1738C26.4016 42.6916 26.8214 43.1113 27.3391 43.1113H27.3612C27.879 43.1113 28.2987 42.6916 28.2987 42.1738C28.2987 41.6562 27.8791 41.2363 27.3612 41.2363Z" fill="#166CB7"/>
</svg>
