<svg width="72" height="72" viewBox="0 0 72 72" fill="none" xmlns="http://www.w3.org/2000/svg">
<path d="M54.9844 19.125C54.9844 8.65668 46.4683 0 36 0C25.5317 0 17.0156 8.65668 17.0156 19.125C17.0156 29.5933 25.5317 38.1094 36 38.1094C46.4683 38.1094 54.9844 29.5933 54.9844 19.125ZM33.8906 31.7812V29.9081C31.4291 29.0413 29.6494 26.7166 29.6494 23.9617C29.6494 22.7961 30.5925 21.8524 31.7587 21.8524C32.9244 21.8524 33.8681 22.7961 33.8681 23.9617C33.8681 25.1257 34.8135 26.0711 35.9775 26.0711C37.1409 26.0711 38.0869 25.1257 38.0869 23.9617C38.0869 22.7977 37.1409 21.8524 35.9775 21.8524C32.4877 21.8524 29.6494 19.0135 29.6494 15.5242C29.6494 12.7694 31.4291 10.4453 33.8906 9.57788V6.46875C33.8906 5.30365 34.8349 4.35938 36 4.35938C37.1651 4.35938 38.1094 5.30365 38.1094 6.46875V9.59161C40.5478 10.4716 42.3056 12.7864 42.3056 15.5242C42.3056 16.6904 41.3619 17.6336 40.1962 17.6336C39.03 17.6336 38.0869 16.6904 38.0869 15.5242C38.0869 14.3602 37.1409 13.4149 35.9775 13.4149C34.8135 13.4149 33.8681 14.3602 33.8681 15.5242C33.8681 16.6882 34.8135 17.6336 35.9775 17.6336C39.4667 17.6336 42.3056 20.4725 42.3056 23.9617C42.3056 26.6995 40.5478 29.0143 38.1094 29.8943V31.7812C38.1094 32.9474 37.1656 33.8906 36 33.8906C34.8338 33.8906 33.8906 32.9469 33.8906 31.7812Z" fill="white"/>
<path d="M2.10938 67.6406L14.5684 67.5983C14.9442 67.661 34.6723 71.2419 39.0405 71.9698C39.5854 72.0604 40.116 71.9451 40.5687 71.6281C45.3203 68.3015 73.0173 48.7156 71.114 50.0482C72.0851 49.3544 72.2642 48.0613 71.6199 47.0951C69.5671 44.2386 65.5757 43.5954 62.8028 45.5762C62.3809 45.8712 41.8727 60.1111 43.1719 59.2031H27.5625C26.3809 59.2031 25.4531 58.2748 25.4531 57.0938C25.4531 55.9122 26.3809 54.9844 27.5625 54.9844C29.0429 54.9844 40.8274 54.9844 40.2188 54.9844C42.5391 54.9844 44.4375 53.0859 44.4375 50.7656C44.4375 48.4453 42.5391 46.5469 40.2188 46.5469H37.6029C37.097 46.5469 36.5905 46.3777 36.2109 46.0404C35.6935 45.6498 33.6863 43.4685 30.3464 42.3281C20.7669 38.9416 14.6838 46.2431 14.1048 46.5469H2.10938C0.944275 46.5469 0 47.4911 0 48.6562V65.5384C0 66.7018 0.945374 67.6445 2.10938 67.6406Z" fill="white"/>
<circle cx="36" cy="19" r="16" fill="white"/>
<path d="M31.5153 32C30.963 32 30.5153 31.5523 30.5153 31V28.104C30.5153 27.5517 30.0676 27.104 29.5153 27.104H28.3833C27.831 27.104 27.3833 26.6563 27.3833 26.104V25.764C27.3833 25.2117 27.831 24.764 28.3833 24.764H29.5153C30.0676 24.764 30.5153 24.3163 30.5153 23.764V22.56C30.5153 22.0077 30.0676 21.56 29.5153 21.56H28.3833C27.831 21.56 27.3833 21.1123 27.3833 20.56V19.824C27.3833 19.2717 27.831 18.824 28.3833 18.824H29.5153C30.0676 18.824 30.5153 18.3763 30.5153 17.824V7.29599C30.5153 6.7437 30.963 6.29599 31.5153 6.29599H37.2833C40.4273 6.29599 42.7553 6.93199 44.2673 8.20399C45.8033 9.47599 46.5713 11.324 46.5713 13.748C46.5713 16.196 45.7433 18.116 44.0873 19.508C42.4313 20.876 39.9953 21.56 36.7793 21.56H34.7553C34.203 21.56 33.7553 22.0077 33.7553 22.56V23.764C33.7553 24.3163 34.203 24.764 34.7553 24.764H38.6953C39.2476 24.764 39.6953 25.2117 39.6953 25.764V26.104C39.6953 26.6563 39.2476 27.104 38.6953 27.104H34.7553C34.203 27.104 33.7553 27.5517 33.7553 28.104V31C33.7553 31.5523 33.3076 32 32.7553 32H31.5153ZM33.7553 17.824C33.7553 18.3763 34.203 18.824 34.7553 18.824H36.3113C38.4953 18.824 40.1873 18.464 41.3873 17.744C42.6113 17.024 43.2233 15.728 43.2233 13.856C43.2233 12.224 42.7193 11.012 41.7113 10.22C40.7033 9.42799 39.1313 9.03199 36.9953 9.03199H34.7553C34.203 9.03199 33.7553 9.47971 33.7553 10.032V17.824Z" fill="#248FEE"/>
</svg>
