<svg width="72" height="72" viewBox="0 0 72 72" fill="none" xmlns="http://www.w3.org/2000/svg">
<g clip-path="url(#clip0)">
<path d="M20.2042 24.1018C20.4821 24.527 20.6595 24.9895 20.8254 25.4531H21.4478C22.5124 15.9868 30.4725 8.57812 40.2185 8.57812C50.6874 8.57812 59.2029 17.0936 59.2029 27.5625C59.2029 38.0308 50.6874 46.5469 40.2185 46.5469C30.4725 46.5469 22.5124 39.1377 21.4478 29.6719H20.8381C20.659 30.1734 20.4464 30.6683 20.1366 31.1237L15.9178 37.3206C15.6569 37.7045 15.3449 38.0407 15.0137 38.3527C17.1796 43.4026 20.8315 47.7367 25.5292 50.7222L25.5419 69.8906C25.5419 71.0563 26.485 72 27.6512 72H52.9637C54.1294 72 55.1248 71.0563 55.1248 69.8906V59.2031H61.4012C62.5669 59.2031 63.5623 58.2594 63.5623 57.0938V46.5469H69.8904C70.5908 46.5469 71.2439 46.1986 71.6372 45.6196C72.0289 45.0412 72.1091 44.3035 71.8498 43.6547L66.2418 29.7686V23.3438C66.2418 10.5496 55.8328 0 43.0387 0H40.2185C29.2591 0 19.4263 6.84229 15.1219 16.624C15.435 16.9343 15.736 17.2617 15.9838 17.6396L20.2042 24.1018Z" fill="white"/>
<path d="M29.8857 29.6719H25.667C26.7014 36.8086 32.8004 42.3281 40.2189 42.3281C48.3598 42.3281 54.9846 35.7034 54.9846 27.5625C54.9846 19.4216 48.3598 12.7969 40.2189 12.7969C32.8004 12.7969 26.7014 18.3164 25.667 25.4531H29.8857C30.8657 20.645 35.1262 17.0156 40.2189 17.0156C46.0345 17.0156 50.7658 21.7474 50.7658 27.5625C50.7658 33.3776 46.0345 38.1094 40.2189 38.1094C35.1262 38.1094 30.8657 34.48 29.8857 29.6719Z" fill="white"/>
<path d="M40.2185 29.6719H34.2793C35.1527 32.1218 37.4725 33.8906 40.2185 33.8906C43.7083 33.8906 46.5466 31.0518 46.5466 27.5625C46.5466 24.0732 43.7083 21.2344 40.2185 21.2344C37.4725 21.2344 35.1527 23.0032 34.2793 25.4531H40.2185C41.3847 25.4531 42.3279 26.3969 42.3279 27.5625C42.3279 28.7287 41.3847 29.6719 40.2185 29.6719Z" fill="white"/>
<path d="M3.79255 27.5378L0.367013 32.5723C-0.0740883 33.2172 -0.121329 34.0532 0.245614 34.7454C0.61036 35.4353 1.32887 35.8682 2.10999 35.8682H10.6881C11.3863 35.8682 12.0389 35.5221 12.4306 34.9453L16.6493 28.749C17.1294 28.0443 17.1376 27.1214 16.6718 26.4089L12.4531 19.9484C12.0636 19.3535 11.4006 18.9926 10.6881 18.9926H2.10999C1.33491 18.9926 0.622445 19.4172 0.253854 20.0989C-0.11309 20.779 -0.0801307 21.6068 0.344491 22.2556L3.79255 27.5378Z" fill="white"/>
</g>
<defs>
<clipPath id="clip0">
<rect width="72" height="72" fill="white"/>
</clipPath>
</defs>
</svg>
