<svg width="72" height="72" viewBox="0 0 72 72" fill="none" xmlns="http://www.w3.org/2000/svg">
<g clip-path="url(#clip0)">
<path d="M10.5104 46.136C10.1028 46.949 10.2616 47.9317 10.9037 48.5744L11.4195 49.0902C12.9098 47.3242 14.6468 45.4076 16.7534 43.3015C16.9023 43.1526 17.0555 43.0807 17.2049 42.9434L13.8865 39.6244C11.9573 43.1136 10.8323 45.4977 10.5104 46.136Z" fill="white"/>
<path d="M28.6859 55.2338C26.5743 57.3453 24.6627 59.0856 22.9065 60.577L23.6052 61.2757C24.2534 61.9239 25.2455 62.0799 26.0612 61.6602C27.1538 61.0972 28.8721 60.2886 32.5195 58.2572L29.0446 54.7822C28.9072 54.9322 28.8353 55.0849 28.6859 55.2338Z" fill="white"/>
<path d="M27.5614 44.4287C26.0371 42.9044 21.7502 44.2711 19.7364 46.2843C12.9996 53.0211 9.95696 57.7974 8.59081 60.6176C8.19914 61.4257 8.36229 62.393 8.9973 63.028C9.63341 63.6647 10.6024 63.8262 11.411 63.4345C14.168 62.0958 18.8861 59.0674 25.7031 52.251C27.9174 50.0356 29.01 45.8778 27.5631 44.4304L27.5614 44.4287Z" fill="white"/>
<path d="M6.58424 28.0843L0.618113 34.0505C-0.0564472 34.725 -0.194875 35.7693 0.28303 36.5965C0.7494 37.4128 1.72608 37.8287 2.65553 37.5798C5.88002 36.7152 8.71723 36.3499 10.6278 36.8399C13.3458 32.0076 16.2665 27.5592 19.3597 23.5184C17.5706 22.3715 11.6583 23.0103 6.58424 28.0843Z" fill="white"/>
<path d="M35.7038 71.7737C36.5162 72.1846 37.5001 72.0258 38.1433 71.382L44.11 65.4159C48.7292 60.7956 49.5422 54.8344 48.4941 52.9442C43.9875 56.3406 39.4221 59.2086 35.1627 61.6097C35.4566 63.2692 35.261 64.8792 34.5662 69.5814C34.4305 70.4916 34.9007 71.3721 35.7038 71.7737Z" fill="white"/>
<path d="M41.8783 21.1597C39.4113 23.6272 39.4113 27.6411 41.8783 30.1086C44.3458 32.5761 48.3602 32.5761 50.8278 30.1086C53.2953 27.6411 53.2953 23.6272 50.8278 21.1597C48.3602 18.6921 44.3458 18.6921 41.8783 21.1597Z" fill="white"/>
<path d="M71.876 2.05772C71.8002 1.01457 70.9696 0.190049 69.9298 0.112046C64.7492 -0.277969 59.5889 0.359238 54.5308 1.90611C54.9114 5.38109 56.7088 9.14171 59.7773 12.2102C62.8826 15.3149 66.7454 17.1117 70.2824 17.4479C71.6447 12.6738 72.2907 7.56078 71.876 2.05772Z" fill="white"/>
<path d="M56.7944 15.1935C53.2843 11.6834 51.1409 7.47345 50.4531 3.37445C37.7864 8.56934 25.6608 19.9138 16.0791 35.8506L20.8395 40.611C24.092 39.2904 28.0405 38.9416 30.5448 41.4454C33.0524 43.9536 32.697 47.9004 31.377 51.1485L36.2939 56.0654C48.5558 48.6755 62.8314 37.0327 68.9019 21.5425C64.7029 20.9081 60.3617 18.7608 56.7944 15.1935ZM53.8105 33.0919C49.6989 37.2036 43.0077 37.2036 38.8955 33.0919C34.7833 28.9797 34.7833 22.288 38.8955 18.1763C43.0077 14.0647 49.6989 14.0647 53.8105 18.1763C57.9227 22.2885 57.9227 28.9797 53.8105 33.0919Z" fill="white"/>
</g>
<defs>
<clipPath id="clip0">
<rect width="72" height="72" fill="white"/>
</clipPath>
</defs>
</svg>
