<svg width="48" height="48" viewBox="0 0 48 48" fill="none" xmlns="http://www.w3.org/2000/svg">
<path d="M39.3585 15.9939L41.3767 13.9753C42.4731 12.8793 42.4731 11.0951 41.3767 9.99829C40.2803 8.90186 38.4961 8.90186 37.3997 9.99829L35.2449 12.1531C32.9971 10.5875 30.4347 9.50391 27.75 8.98389V6.1875H29.625C30.1428 6.1875 30.5625 5.76782 30.5625 5.25V2.8125C30.5625 1.2616 29.3009 0 27.75 0H20.25C18.6991 0 17.4375 1.2616 17.4375 2.8125V5.25C17.4375 5.76782 17.8572 6.1875 18.375 6.1875H20.25V8.98389C17.5657 9.50354 15.0029 10.5875 12.7551 12.1531L10.6003 9.99829C9.50427 8.90186 7.72009 8.90186 6.62329 9.99829C5.52686 11.0947 5.52686 12.8789 6.62329 13.9753L8.64148 15.9939C5.84399 19.4784 4.3125 23.8187 4.3125 28.3125C4.3125 39.1681 13.1444 48 24 48C34.8556 48 43.6875 39.1681 43.6875 28.3125C43.6875 23.8187 42.156 19.4784 39.3585 15.9939ZM38.7253 11.324C39.0912 10.9585 39.6855 10.9589 40.051 11.324C40.4161 11.6895 40.4161 12.2842 40.051 12.6497L38.1138 14.5865C37.6772 14.1383 37.2195 13.7109 36.7434 13.3063L38.7253 11.324ZM19.3125 2.8125C19.3125 2.29541 19.7329 1.875 20.25 1.875H27.75C28.2671 1.875 28.6875 2.29541 28.6875 2.8125V4.3125H19.3125V2.8125ZM25.875 6.1875V8.71362C24.6324 8.59717 23.3679 8.59717 22.125 8.71362V6.1875H25.875ZM7.94897 11.324C8.31445 10.9589 8.90918 10.9585 9.27466 11.324L11.2566 13.3063C10.7805 13.7109 10.3228 14.1383 9.88623 14.5865L7.94897 12.6497C7.58386 12.2842 7.58386 11.6895 7.94897 11.324ZM24 46.125C14.1782 46.125 6.1875 38.1343 6.1875 28.3125C6.1875 23.9799 7.76038 19.8054 10.6161 16.5575C11.4027 15.6628 12.2805 14.8455 13.225 14.127C15.5918 12.3259 18.3933 11.1405 21.3267 10.6985C22.2045 10.567 23.1039 10.5 24 10.5C24.8961 10.5 25.7955 10.567 26.673 10.6985C29.6067 11.1405 32.4082 12.3259 34.7754 14.127C35.7195 14.8455 36.5973 15.6628 37.3839 16.5575C40.2396 19.8054 41.8125 23.9799 41.8125 28.3125C41.8125 38.1343 33.8218 46.125 24 46.125Z" fill="#166CB7"/>
<path d="M24 31.125C25.5509 31.125 26.8125 29.8634 26.8125 28.3125C26.8125 27.0905 26.0288 26.0482 24.9375 25.6611V18.9375C24.9375 18.4197 24.5178 18 24 18C23.4822 18 23.0625 18.4197 23.0625 18.9375V25.6611C21.9712 26.0482 21.1875 27.0905 21.1875 28.3125C21.1875 29.8634 22.4491 31.125 24 31.125ZM24 27.375C24.5171 27.375 24.9375 27.7954 24.9375 28.3125C24.9375 28.8296 24.5171 29.25 24 29.25C23.4829 29.25 23.0625 28.8296 23.0625 28.3125C23.0625 27.7954 23.4829 27.375 24 27.375Z" fill="#166CB7"/>
<path d="M33.9869 18.4219C33.9723 18.4047 33.9576 18.3875 33.9412 18.3713C33.9236 18.3534 33.9049 18.3373 33.8862 18.3212C32.2339 16.6864 30.1926 15.4768 27.9774 14.8228C27.4805 14.6763 26.9594 14.9597 26.8129 15.4563C26.6664 15.9529 26.9498 16.4744 27.4464 16.6209C29.0878 17.1057 30.6189 17.9436 31.9241 19.0624L31.2916 19.6948C30.9258 20.061 30.9258 20.6547 31.2916 21.0209C31.4747 21.204 31.7146 21.2955 31.9548 21.2955C32.1947 21.2955 32.4346 21.204 32.6177 21.0209L33.2516 20.387C34.9479 22.3594 35.9553 24.7874 36.1516 27.375H35.25C34.7322 27.375 34.3125 27.795 34.3125 28.3125C34.3125 28.8303 34.7322 29.25 35.25 29.25H36.1516C35.9553 31.838 34.9479 34.2656 33.2516 36.238L32.6177 35.6041C32.2515 35.2383 31.6578 35.2383 31.2916 35.6041C30.9254 35.9703 30.9254 36.564 31.2916 36.9302L31.9255 37.5641C29.9531 39.2604 27.5251 40.2678 24.9375 40.4645V39.5625C24.9375 39.0447 24.5178 38.625 24 38.625C23.4822 38.625 23.0625 39.0447 23.0625 39.5625V40.4641C20.4749 40.2678 18.0469 39.2604 16.0745 37.5641L16.7084 36.9302C17.0746 36.564 17.0746 35.9703 16.7084 35.6041C16.3422 35.2383 15.7485 35.2383 15.3823 35.6041L14.7484 36.238C13.0521 34.2656 12.0447 31.8377 11.8484 29.25H12.75C13.2678 29.25 13.6875 28.8303 13.6875 28.3125C13.6875 27.7947 13.2678 27.375 12.75 27.375H11.8484C12.0447 24.7874 13.0521 22.3594 14.7484 20.387L15.3823 21.0209C15.5654 21.204 15.8053 21.2955 16.0452 21.2955C16.2854 21.2955 16.5253 21.204 16.7084 21.0209C17.0742 20.6547 17.0742 20.061 16.7084 19.6948L16.0759 19.0624C17.3811 17.9432 18.9122 17.1057 20.5536 16.6209C21.0502 16.4744 21.3336 15.9529 21.1871 15.4563C21.0406 14.9597 20.5199 14.6766 20.0226 14.8228C17.8077 15.4764 15.7672 16.6857 14.1152 18.3197C14.0958 18.3362 14.0768 18.353 14.0588 18.371C14.0427 18.3871 14.0284 18.4039 14.0138 18.4208C11.3848 21.0743 9.9375 24.5841 9.9375 28.3125C9.9375 32.0405 11.3848 35.5499 14.0131 38.2031C14.0277 38.2203 14.0424 38.2376 14.0588 38.2537C14.075 38.2701 14.0918 38.2844 14.1086 38.2991C16.7622 40.9277 20.2716 42.375 24 42.375C27.728 42.375 31.2374 40.9281 33.8906 38.2998C33.9078 38.2848 33.925 38.2701 33.9412 38.2537C33.9573 38.2379 33.9716 38.2207 33.9862 38.2042C36.6152 35.5507 38.0625 32.0409 38.0625 28.3125C38.0625 24.5845 36.6152 21.0751 33.9869 18.4219Z" fill="#166CB7"/>
<path d="M24 16.125C24.5175 16.125 24.9375 15.705 24.9375 15.1875C24.9375 14.67 24.5175 14.25 24 14.25C23.4825 14.25 23.0625 14.67 23.0625 15.1875C23.0625 15.705 23.4825 16.125 24 16.125Z" fill="#166CB7"/>
</svg>
