<svg width="48" height="48" viewBox="0 0 48 48" fill="none" xmlns="http://www.w3.org/2000/svg">
<path d="M46.0649 3.16479H38.0892V1.87427C38.0892 0.840454 37.2488 0 36.215 0H2.06177C1.02905 0 0.1875 0.840454 0.1875 1.87427V12.776C0.1875 13.1693 0.505737 13.4865 0.897949 13.4865C1.29126 13.4865 1.60876 13.1693 1.60876 12.776V1.87427C1.60876 1.62415 1.81238 1.42126 2.06177 1.42126H36.215C36.4651 1.42126 36.668 1.62415 36.668 1.87427V3.16479H32.6543C32.2621 3.16479 31.9438 3.48303 31.9438 3.87524C31.9438 4.26855 32.2621 4.58569 32.6543 4.58569H46.0649C46.3154 4.58569 46.5179 4.78967 46.5179 5.0387V39.1923C46.5179 39.4424 46.3154 39.6449 46.0649 39.6449C45.5848 39.6449 25.7194 39.6449 25.1027 39.6449C24.8525 39.6449 24.65 39.4424 24.65 39.1923C24.65 38.4353 24.65 23.8905 24.65 23.2896V5.0387C24.65 4.78967 24.8525 4.58569 25.1027 4.58569H29.8118C30.2051 4.58569 30.5226 4.26855 30.5226 3.87524C30.5226 3.48303 30.2051 3.16479 29.8118 3.16479H25.1027C24.0692 3.16479 23.2288 4.00598 23.2288 5.0387V23.2896H1.60876V15.6185C1.60876 15.2263 1.29126 14.9077 0.897949 14.9077C0.505737 14.9077 0.1875 15.2263 0.1875 15.6185V46.1257C0.1875 47.1595 1.02905 48 2.06177 48H36.215C37.2488 48 38.0892 47.1595 38.0892 46.1257V41.0662H46.0649C47.0988 41.0662 47.9392 40.2257 47.9392 39.1923V5.0387C47.9392 4.00598 47.0988 3.16479 46.0649 3.16479ZM36.668 46.1257C36.668 46.3759 36.4651 46.5787 36.215 46.5787H2.06177C1.81238 46.5787 1.60876 46.3759 1.60876 46.1257V24.7104H23.2288V39.1923C23.2288 40.2257 24.0692 41.0662 25.1027 41.0662H36.668V46.1257Z" fill="#166CB7"/>
<path d="M27.2366 26.1881C29.7543 31.3634 36.1922 32.9103 40.7421 29.8736C47.6276 25.3506 45.5618 14.5052 37.3143 12.9803C30.0575 11.5598 23.8198 19.1565 27.2366 26.1881ZM38.1467 29.4763C38.7374 28.8695 39.2468 28.1858 39.6647 27.4405C40.0008 27.6233 40.3257 27.8276 40.6362 28.0561C39.8895 28.693 39.0593 29.1599 38.1467 29.4763ZM41.7081 26.9685C41.2646 26.6272 40.7959 26.3251 40.3063 26.0647C40.6827 25.0726 40.916 24.0026 40.9896 22.8827H43.3392C43.2008 24.4054 42.6299 25.8127 41.7081 26.9685ZM43.3341 21.3669H40.9914C40.9197 20.2405 40.6853 19.1623 40.3033 18.1626C40.7893 17.904 41.2547 17.6045 41.6953 17.2665C42.6094 18.4142 43.1861 19.8234 43.3341 21.3669ZM40.6234 16.1785C40.3147 16.4044 39.9917 16.6073 39.6581 16.7886C39.2432 16.0536 38.7389 15.3783 38.1533 14.7766C39.0974 15.1062 39.8954 15.5607 40.6234 16.1785ZM36.3585 15.1864C37.1195 15.8027 37.7571 16.5505 38.2555 17.3954C37.6432 17.5964 37.0071 17.7268 36.3585 17.7843V15.1864ZM36.3585 19.3044C37.2345 19.2381 38.0918 19.058 38.9114 18.7712C39.2146 19.5831 39.4054 20.4554 39.4728 21.3666H36.3585V19.3044ZM36.3585 22.8827H39.4706C39.4017 23.7869 39.2128 24.6511 38.915 25.4553C38.0943 25.1682 37.236 24.9877 36.3585 24.9214V22.8827ZM36.3585 26.4412C37.01 26.499 37.6487 26.6305 38.2632 26.8326C37.7633 27.687 37.1224 28.4407 36.3585 29.0596V26.4412ZM27.8382 22.8827H30.2062C30.2823 23.9919 30.5222 25.062 30.906 26.0585C30.4167 26.3181 29.948 26.6191 29.5045 26.9593C28.5406 25.7454 27.9862 24.2999 27.8382 22.8827ZM30.5662 28.055C30.8807 27.8236 31.2103 27.6167 31.5513 27.4321C31.972 28.181 32.4829 28.8691 33.0718 29.4785C32.1764 29.1705 31.3334 28.7036 30.5662 28.055ZM34.8424 29.0541C34.0898 28.4374 33.4526 27.6815 32.9516 26.8282C33.5618 26.6283 34.196 26.4986 34.8424 26.4412V29.0541ZM34.8424 24.9214C33.9686 24.9873 33.1131 25.1664 32.2958 25.4517C31.9918 24.6438 31.7974 23.7792 31.7259 22.8827H34.8424V24.9214ZM34.8424 21.3669H31.7259C31.7985 20.4679 31.9984 19.5956 32.3093 18.7786C33.1227 19.0613 33.9734 19.2389 34.8424 19.3044V21.3669ZM34.8424 15.1912V17.7843C34.2019 17.7275 33.5735 17.5994 32.9685 17.4027C33.4676 16.5542 34.1008 15.8024 34.8424 15.1912ZM33.0941 14.7488C32.5052 15.3592 31.9933 16.0514 31.5692 16.8028C31.2305 16.6205 30.9027 16.4158 30.5896 16.1869C31.4169 15.4772 32.2313 15.0403 33.0941 14.7488ZM30.9203 18.1743C30.5288 19.1799 30.2842 20.258 30.2069 21.3669H27.8331C27.9763 19.9076 28.548 18.4973 29.5265 17.2826C29.9678 17.6195 30.4339 17.9172 30.9203 18.1743Z" fill="#166CB7"/>
<path d="M15.2622 26.9751H4.34399C3.63611 26.9751 3.06006 27.5511 3.06006 28.259V43.0305C3.06006 43.7384 3.63611 44.3141 4.34399 44.3141H15.2622C15.9701 44.3141 16.5461 43.7384 16.5461 43.0305V28.259C16.5461 27.5511 15.9701 26.9751 15.2622 26.9751ZM6.75183 42.8932C6.91479 39.9529 8.06763 38.3185 8.60229 37.7113C9.39441 37.9629 10.2363 37.9548 11.0021 37.7113C11.5338 38.3185 12.6907 39.9595 12.8544 42.8932H6.75183ZM7.2605 33.9327C7.2605 32.5312 8.40125 31.3905 9.80273 31.3905C11.205 31.3905 12.3457 32.5312 12.3457 33.9327C12.3457 35.8488 10.2957 37.0723 8.61841 36.182C7.81201 35.7554 7.2605 34.9076 7.2605 33.9327ZM15.1249 42.8932H14.2775C14.1237 39.8438 13.006 37.9501 12.2776 37.0272C15.1868 34.6981 13.5447 29.9692 9.80273 29.9692C7.61792 29.9692 5.83923 31.7476 5.83923 33.9327C5.83923 35.1833 6.42114 36.3003 7.32861 37.0272C6.60022 37.9504 5.48254 39.8438 5.32874 42.8932H4.48132V28.3964H15.1249V42.8932Z" fill="#166CB7"/>
<path d="M18.7991 28.3964H21.0022C21.3944 28.3964 21.7126 28.0781 21.7126 27.6859C21.7126 27.2933 21.3944 26.9751 21.0022 26.9751H18.7991C18.4065 26.9751 18.0886 27.2933 18.0886 27.6859C18.0886 28.0781 18.4065 28.3964 18.7991 28.3964Z" fill="#166CB7"/>
<path d="M18.7991 32.376H21.0022C21.3944 32.376 21.7126 32.0577 21.7126 31.6652C21.7126 31.2729 21.3944 30.9547 21.0022 30.9547H18.7991C18.4065 30.9547 18.0886 31.2729 18.0886 31.6652C18.0886 32.0577 18.4065 32.376 18.7991 32.376Z" fill="#166CB7"/>
<path d="M18.7991 36.3552H21.0022C21.3944 36.3552 21.7126 36.0374 21.7126 35.6448C21.7126 35.2522 21.3944 34.9343 21.0022 34.9343H18.7991C18.4065 34.9343 18.0886 35.2522 18.0886 35.6448C18.0886 36.0374 18.4065 36.3552 18.7991 36.3552Z" fill="#166CB7"/>
<path d="M18.0886 43.6036C18.0886 43.9962 18.4065 44.3145 18.7991 44.3145H26.7579C27.1505 44.3145 27.4688 43.9962 27.4688 43.6036C27.4688 43.2114 27.1505 42.8932 26.7579 42.8932H18.7991C18.4065 42.8932 18.0886 43.2114 18.0886 43.6036Z" fill="#166CB7"/>
<path d="M29.6005 44.3145H33.9825C34.3751 44.3145 34.6934 43.9962 34.6934 43.6036C34.6934 43.2114 34.3751 42.8932 33.9825 42.8932H29.6005C29.2083 42.8932 28.89 43.2114 28.89 43.6036C28.89 43.9962 29.2083 44.3145 29.6005 44.3145Z" fill="#166CB7"/>
</svg>
