<svg width="42" height="48" viewBox="0 0 42 48" fill="none" xmlns="http://www.w3.org/2000/svg">
<path d="M28.125 26.2503C27.7108 26.2503 27.375 26.5861 27.375 27.0003V40.5H1.875V7.5H10.125C10.5392 7.5 10.875 7.16419 10.875 6.75C10.875 6.33581 10.5392 6 10.125 6H1.875V5.25C1.875 3.18225 3.55725 1.5 5.625 1.5H23.625C24.0392 1.5 24.375 1.16419 24.375 0.75C24.375 0.335812 24.0392 0 23.625 0H5.625C2.73019 0 0.375 2.35519 0.375 5.25V42.75C0.375 45.6448 2.73019 48 5.625 48H23.625C26.5198 48 28.875 45.6448 28.875 42.75V27.0003C28.875 26.5861 28.5392 26.2503 28.125 26.2503ZM23.625 46.5H5.625C3.55725 46.5 1.875 44.8177 1.875 42.75V42H27.375V42.75C27.375 44.8177 25.6927 46.5 23.625 46.5Z" fill="#166CB7"/>
<path d="M16.125 43.5H13.125C12.7108 43.5 12.375 43.8358 12.375 44.25C12.375 44.6642 12.7108 45 13.125 45H16.125C16.5392 45 16.875 44.6642 16.875 44.25C16.875 43.8358 16.5392 43.5 16.125 43.5Z" fill="#166CB7"/>
<path d="M9.59437 3.21938C9.45469 3.35906 9.375 3.55313 9.375 3.75C9.375 3.94687 9.45469 4.14094 9.59437 4.28062C9.73406 4.42031 9.92719 4.5 10.125 4.5C10.3228 4.5 10.5159 4.42031 10.6556 4.28062C10.7953 4.14094 10.875 3.94781 10.875 3.75C10.875 3.55219 10.7953 3.35906 10.6556 3.21938C10.5159 3.07969 10.3228 3 10.125 3C9.92719 3 9.73406 3.07969 9.59437 3.21938Z" fill="#166CB7"/>
<path d="M16.875 12.75H21.375C21.7892 12.75 22.125 12.4142 22.125 12C22.125 11.5858 21.7892 11.25 21.375 11.25H16.875C16.4608 11.25 16.125 11.5858 16.125 12C16.125 12.4142 16.4608 12.75 16.875 12.75Z" fill="#166CB7"/>
<path d="M36.375 11.25H24.375C23.9608 11.25 23.625 11.5858 23.625 12C23.625 12.4142 23.9608 12.75 24.375 12.75H36.375C36.7892 12.75 37.125 12.4142 37.125 12C37.125 11.5858 36.7892 11.25 36.375 11.25Z" fill="#166CB7"/>
<path d="M36.375 15H31.875C31.4608 15 31.125 15.3358 31.125 15.75C31.125 16.1642 31.4608 16.5 31.875 16.5H36.375C36.7892 16.5 37.125 16.1642 37.125 15.75C37.125 15.3358 36.7892 15 36.375 15Z" fill="#166CB7"/>
<path d="M16.875 16.5H28.875C29.2892 16.5 29.625 16.1642 29.625 15.75C29.625 15.3358 29.2892 15 28.875 15H16.875C16.4608 15 16.125 15.3358 16.125 15.75C16.125 16.1642 16.4608 16.5 16.875 16.5Z" fill="#166CB7"/>
<path d="M36.375 7.5H16.875C16.4608 7.5 16.125 7.83581 16.125 8.25C16.125 8.66419 16.4608 9 16.875 9H36.375C36.7892 9 37.125 8.66419 37.125 8.25C37.125 7.83581 36.7892 7.5 36.375 7.5Z" fill="#166CB7"/>
<path d="M36.375 18.75H16.875C16.4608 18.75 16.125 19.0858 16.125 19.5C16.125 19.9142 16.4608 20.25 16.875 20.25H36.375C36.7892 20.25 37.125 19.9142 37.125 19.5C37.125 19.0858 36.7892 18.75 36.375 18.75Z" fill="#166CB7"/>
<path d="M36.375 3H16.875C13.9802 3 11.625 5.35519 11.625 8.25V19.5C11.625 22.1403 13.5841 24.3316 16.125 24.6966V27.4393C16.125 28.0482 16.4885 28.5922 17.051 28.8251C17.2377 28.9025 17.433 28.9401 17.6266 28.9401C18.0161 28.9401 18.3981 28.7876 18.6857 28.5L22.4357 24.75H36.375C39.2698 24.75 41.625 22.3948 41.625 19.5V8.25C41.625 5.35519 39.2698 3 36.375 3ZM40.125 19.5C40.125 21.5677 38.4427 23.25 36.375 23.25H22.125C21.9261 23.25 21.7353 23.329 21.5947 23.4697L17.625 27.4387V24C17.625 23.5858 17.2892 23.25 16.875 23.25C14.8073 23.25 13.125 21.5677 13.125 19.5V8.25C13.125 6.18225 14.8073 4.5 16.875 4.5H36.375C38.4427 4.5 40.125 6.18225 40.125 8.25V19.5Z" fill="#166CB7"/>
</svg>
