<?xml version="1.0" encoding="utf-8"?><svg width="150px" height="44px" enable-background="new 0 0 24 24" version="1.1" viewBox="0 0 135 40" xml:space="preserve" xmlns="http://www.w3.org/2000/svg">
                                            <path d="m130 40h-125c-2.75 0-5-2.25-5-5v-30c0-2.75 2.25-5 5-5h125c2.75 0 5 2.25 5 5v30c0 2.75-2.25 5-5 5z"/>
    <path d="m130 0.8c2.316 0 4.2 1.884 4.2 4.2v30c0 2.316-1.884 4.2-4.2 4.2h-125c-2.316 0-4.2-1.884-4.2-4.2v-30c0-2.316 1.884-4.2 4.2-4.2h125m0-0.8h-125c-2.75 0-5 2.25-5 5v30c0 2.75 2.25 5 5 5h125c2.75 0 5-2.25 5-5v-30c0-2.75-2.25-5-5-5z" fill="#A6A6A6"/>
    <path d="m68.136 21.751c-2.352 0-4.269 1.789-4.269 4.253 0 2.449 1.917 4.253 4.269 4.253 2.353 0 4.27-1.804 4.27-4.253-1e-3 -2.464-1.918-4.253-4.27-4.253zm0 6.832c-1.289 0-2.4-1.063-2.4-2.578 0-1.531 1.112-2.578 2.4-2.578 1.289 0 2.4 1.047 2.4 2.578 0 1.514-1.111 2.578-2.4 2.578zm-9.314-6.832c-2.352 0-4.269 1.789-4.269 4.253 0 2.449 1.917 4.253 4.269 4.253 2.353 0 4.27-1.804 4.27-4.253 0-2.464-1.917-4.253-4.27-4.253zm0 6.832c-1.289 0-2.4-1.063-2.4-2.578 0-1.531 1.112-2.578 2.4-2.578 1.289 0 2.4 1.047 2.4 2.578 1e-3 1.514-1.111 2.578-2.4 2.578zm-11.078-5.526v1.804h4.318c-0.129 1.015-0.467 1.756-0.983 2.271-0.628 0.628-1.611 1.321-3.335 1.321-2.658 0-4.736-2.143-4.736-4.801s2.078-4.801 4.736-4.801c1.434 0 2.481 0.564 3.254 1.289l1.273-1.273c-1.08-1.031-2.513-1.82-4.527-1.82-3.641 0-6.702 2.964-6.702 6.605s3.061 6.605 6.702 6.605c1.965 0 3.448-0.645 4.607-1.853 1.192-1.192 1.563-2.868 1.563-4.221 0-0.418-0.032-0.805-0.097-1.127h-6.073zm45.308 1.401c-0.354-0.95-1.434-2.707-3.641-2.707-2.191 0-4.012 1.724-4.012 4.253 0 2.384 1.805 4.253 4.221 4.253 1.949 0 3.077-1.192 3.545-1.885l-1.45-0.967c-0.483 0.709-1.144 1.176-2.095 1.176-0.95 0-1.627-0.435-2.062-1.289l5.687-2.352-0.193-0.482zm-5.8 1.418c-0.048-1.644 1.273-2.481 2.224-2.481 0.741 0 1.369 0.371 1.579 0.902l-3.803 1.579zm-4.623 4.124h1.868v-12.501h-1.868v12.501zm-3.062-7.298h-0.064c-0.419-0.5-1.225-0.951-2.239-0.951-2.127 0-4.076 1.869-4.076 4.27 0 2.384 1.949 4.237 4.076 4.237 1.015 0 1.82-0.451 2.239-0.966h0.064v0.612c0 1.627-0.87 2.497-2.271 2.497-1.144 0-1.853-0.821-2.143-1.514l-1.627 0.677c0.467 1.127 1.707 2.513 3.77 2.513 2.191 0 4.044-1.289 4.044-4.431v-7.636h-1.772v0.692zm-2.142 5.881c-1.289 0-2.368-1.08-2.368-2.562 0-1.499 1.079-2.594 2.368-2.594 1.272 0 2.271 1.095 2.271 2.594 0 1.482-0.999 2.562-2.271 2.562zm24.381-11.084h-4.471v12.501h1.865v-4.736h2.605c2.068 0 4.102-1.497 4.102-3.882s-2.033-3.883-4.101-3.883zm0.048 6.025h-2.654v-4.285h2.654c1.395 0 2.187 1.155 2.187 2.143 0 0.968-0.792 2.142-2.187 2.142zm11.532-1.795c-1.351 0-2.75 0.595-3.329 1.914l1.656 0.691c0.354-0.691 1.014-0.917 1.705-0.917 0.965 0 1.946 0.579 1.962 1.608v0.129c-0.338-0.193-1.062-0.482-1.946-0.482-1.785 0-3.603 0.981-3.603 2.814 0 1.673 1.464 2.75 3.104 2.75 1.254 0 1.946-0.563 2.38-1.223h0.064v0.965h1.802v-4.793c1e-3 -2.218-1.657-3.456-3.795-3.456zm-0.226 6.851c-0.61 0-1.463-0.306-1.463-1.062 0-0.965 1.062-1.335 1.979-1.335 0.819 0 1.206 0.177 1.704 0.418-0.145 1.159-1.142 1.979-2.22 1.979zm10.583-6.578l-2.139 5.42h-0.064l-2.22-5.42h-2.01l3.329 7.575-1.898 4.214h1.946l5.131-11.789h-2.075zm-16.806 7.998h1.865v-12.501h-1.865v12.501z" fill="#fff"/>
    <linearGradient id="d" x1="21.801" x2="5.0188" y1="173.29" y2="156.51" gradientTransform="matrix(1 0 0 -1 0 182)" gradientUnits="userSpaceOnUse">
                                                <stop stop-color="#00A0FF" offset="0"/>
        <stop stop-color="#00A1FF" offset=".0066"/>
        <stop stop-color="#00BEFF" offset=".2601"/>
        <stop stop-color="#00D2FF" offset=".5122"/>
        <stop stop-color="#00DFFF" offset=".7604"/>
        <stop stop-color="#00E3FF" offset="1"/>
                                            </linearGradient>
    <path d="m10.436 7.538c-0.291 0.308-0.463 0.786-0.463 1.405v22.116c0 0.62 0.172 1.097 0.463 1.405l0.074 0.072 12.389-12.389v-0.292l-12.39-12.39-0.073 0.073z" fill="url(#d)"/>
    <linearGradient id="c" x1="33.834" x2="9.6376" y1="162" y2="162" gradientTransform="matrix(1 0 0 -1 0 182)" gradientUnits="userSpaceOnUse">
                                                <stop stop-color="#FFE000" offset="0"/>
        <stop stop-color="#FFBD00" offset=".4087"/>
        <stop stop-color="#FFA500" offset=".7754"/>
        <stop stop-color="#FF9C00" offset="1"/>
                                            </linearGradient>
    <path d="m27.028 24.278l-4.129-4.131v-0.292l4.13-4.13 0.093 0.053 4.893 2.78c1.397 0.794 1.397 2.093 0 2.888l-4.893 2.78-0.094 0.052z" fill="url(#c)"/>
    <linearGradient id="b" x1="24.828" x2="2.0696" y1="159.71" y2="136.95" gradientTransform="matrix(1 0 0 -1 0 182)" gradientUnits="userSpaceOnUse">
                                                <stop stop-color="#FF3A44" offset="0"/>
        <stop stop-color="#C31162" offset="1"/>
                                            </linearGradient>
    <path d="m27.122 24.225l-4.224-4.224-12.462 12.463c0.46 0.488 1.221 0.548 2.078 0.062l14.608-8.301" fill="url(#b)"/>
    <linearGradient id="a" x1="7.2974" x2="17.46" y1="181.82" y2="171.66" gradientTransform="matrix(1 0 0 -1 0 182)" gradientUnits="userSpaceOnUse">
                                                <stop stop-color="#32A071" offset="0"/>
        <stop stop-color="#2DA771" offset=".0685"/>
        <stop stop-color="#15CF74" offset=".4762"/>
        <stop stop-color="#06E775" offset=".8009"/>
        <stop stop-color="#00F076" offset="1"/>
                                            </linearGradient>
    <path d="m27.122 15.777l-14.608-8.3c-0.857-0.487-1.618-0.426-2.078 0.062l12.463 12.463 4.223-4.225z" fill="url(#a)"/>
    <path d="m27.029 24.132l-14.515 8.248c-0.812 0.461-1.538 0.43-2.004 0.011l-0.074 0.074 0.074 0.072c0.466 0.42 1.192 0.451 2.004-0.011l14.608-8.3-0.093-0.094z" enable-background="new    " opacity=".2"/>
    <path d="m10.436 32.318c-0.291-0.308-0.463-0.786-0.463-1.405v0.146c0 0.619 0.172 1.097 0.463 1.405l0.074-0.074-0.074-0.072z" enable-background="new    " opacity=".12"/>
    <path d="m32.015 21.299l-4.986 2.833 0.093 0.093 4.893-2.78c0.699-0.397 1.048-0.92 1.048-1.443-0.059 0.473-0.415 0.936-1.048 1.297z" enable-background="new    " opacity=".12"/>
    <path d="m12.514 7.623l19.501 11.08c0.634 0.36 0.989 0.824 1.048 1.298 0-0.523-0.349-1.047-1.048-1.444l-19.501-11.08c-1.398-0.794-2.541-0.134-2.541 1.466v0.146c0-1.6 1.143-2.26 2.541-1.466z" enable-background="new    " fill="#fff" opacity=".25"/>
    <g fill="#fff" stroke="#fff" stroke-miterlimit="10" stroke-width=".2">
                                        <path d="m42.114 14.273h-0.737v-2.011h0.587c0.52-0.447 0.773-1.212 0.763-2.296v-2.966h4.006v5.263h0.67v2.011h-0.737v-1.274h-4.551v1.273zm1.383-4.306c0.012 0.949-0.179 1.715-0.569 2.296h3.033v-4.526h-2.464v2.23z"/>
        <path d="m53.415 12.225c-0.59 0.606-1.323 0.909-2.2 0.909s-1.61-0.303-2.199-0.909c-0.59-0.606-0.884-1.348-0.884-2.225s0.294-1.619 0.884-2.225c0.589-0.606 1.322-0.91 2.199-0.91 0.872 0 1.604 0.305 2.196 0.914s0.888 1.349 0.888 2.221c-1e-3 0.877-0.296 1.619-0.884 2.225zm-3.831-0.503c0.444 0.45 0.987 0.674 1.63 0.674s1.187-0.225 1.63-0.674c0.444-0.45 0.667-1.024 0.667-1.722s-0.223-1.272-0.667-1.722c-0.443-0.45-0.987-0.674-1.63-0.674s-1.186 0.225-1.63 0.674c-0.443 0.45-0.666 1.024-0.666 1.722s0.223 1.272 0.666 1.722z"/>
        <path d="m58.179 13.134c-0.883 0-1.623-0.299-2.221-0.896-0.598-0.598-0.896-1.344-0.896-2.238s0.298-1.64 0.896-2.237c0.598-0.598 1.338-0.897 2.221-0.897 0.904 0 1.64 0.327 2.204 0.98l-0.537 0.52c-0.407-0.509-0.964-0.763-1.667-0.763-0.654 0-1.206 0.221-1.655 0.662-0.45 0.441-0.675 1.02-0.675 1.734s0.225 1.293 0.675 1.734c0.449 0.441 1.001 0.662 1.655 0.662 0.721 0 1.335-0.29 1.844-0.871l0.536 0.536c-0.274 0.33-0.617 0.591-1.031 0.783-0.413 0.195-0.863 0.291-1.349 0.291z"/>
        <path d="M63.677,13h-0.771V7.737H61.23V7h4.123v0.737    h-1.676V13z"/>
        <path d="m70.646 7l-2.271 5.062c-0.313 0.715-0.779 1.072-1.399 1.072-0.185 0-0.383-0.044-0.596-0.134l0.201-0.712c0.129 0.073 0.263 0.109 0.402 0.109 0.179 0 0.317-0.035 0.415-0.104s0.188-0.197 0.272-0.381l0.218-0.478-2.017-4.434h0.905l1.483 3.444h0.033l1.449-3.444h0.905z"/>
        <path d="m71.52 13v-6h4.341v6h-0.771v-5.263h-2.8v5.263h-0.77z"/>
        <path d="M77.234,13V7h0.771v2.572h3V7h0.771v6h-0.771    v-2.707h-3V13H77.234z"/>
        <path d="m88.058 12.225c-0.59 0.606-1.323 0.909-2.2 0.909s-1.61-0.303-2.199-0.909c-0.59-0.606-0.884-1.348-0.884-2.225s0.294-1.619 0.884-2.225c0.589-0.606 1.322-0.91 2.199-0.91 0.872 0 1.604 0.305 2.196 0.914s0.888 1.349 0.888 2.221c-1e-3 0.877-0.296 1.619-0.884 2.225zm-3.83-0.503c0.444 0.45 0.987 0.674 1.63 0.674s1.187-0.225 1.63-0.674c0.444-0.45 0.667-1.024 0.667-1.722s-0.223-1.272-0.667-1.722c-0.443-0.45-0.987-0.674-1.63-0.674s-1.186 0.225-1.63 0.674c-0.443 0.45-0.666 1.024-0.666 1.722s0.222 1.272 0.666 1.722z"/>
        <path d="m92.094 13v-6h2.17c0.47 0 0.876 0.155 1.22 0.465 0.344 0.311 0.516 0.7 0.516 1.169 0 0.285-0.074 0.537-0.223 0.754-0.147 0.218-0.345 0.383-0.591 0.495v0.033c0.296 0.101 0.539 0.274 0.729 0.52 0.189 0.246 0.285 0.531 0.285 0.855 0 0.492-0.181 0.899-0.541 1.223s-0.786 0.486-1.278 0.486h-2.287zm0.77-3.428h1.399c0.291 0 0.524-0.096 0.7-0.289 0.176-0.192 0.264-0.403 0.264-0.632s-0.085-0.439-0.256-0.628c-0.17-0.19-0.395-0.285-0.674-0.285h-1.434v1.834zm0 2.691h1.551c0.296 0 0.536-0.104 0.721-0.311 0.185-0.206 0.276-0.433 0.276-0.679s-0.095-0.47-0.285-0.674c-0.189-0.204-0.438-0.306-0.746-0.306h-1.517v1.97z"/>
                                    </g>
                                </svg>