<svg width="32" height="32" viewBox="0 0 32 32" fill="none" xmlns="http://www.w3.org/2000/svg">
<path d="M30.905 8.65981L22.7525 0.188625C22.6365 0.068125 22.4763 0 22.3091 0H10.1585C8.79866 0 7.69235 1.10588 7.69235 2.46513V11.0769H2.76816C1.75078 11.0769 0.923096 11.9044 0.923096 12.9215V22.1555C0.923096 23.1726 1.75078 24 2.76816 24H7.69235V29.5392C7.69235 30.8961 8.79866 32 10.1585 32H28.6108C29.9707 32 31.077 30.8967 31.077 29.5406V9.08656C31.077 8.92744 31.0153 8.7745 30.905 8.65981ZM22.4616 1.66131L29.154 8.61537H22.4616V1.66131ZM2.76816 22.7693C2.42941 22.7693 2.15391 22.4939 2.15391 22.1555V12.9215C2.15391 12.5831 2.42947 12.3077 2.76816 12.3077H19.3858C19.7245 12.3077 20 12.5831 20 12.9215V22.1555C20 22.4939 19.7245 22.7693 19.3858 22.7693H2.76816ZM29.8462 29.5406C29.8462 30.2181 29.292 30.7693 28.6108 30.7693H10.1585C9.47728 30.7693 8.9231 30.2175 8.9231 29.5392V24H19.3858C20.4032 24 21.2308 23.1726 21.2308 22.1555V12.9215C21.2308 11.9044 20.4032 11.0769 19.3858 11.0769H8.9231V2.46513C8.9231 1.78444 9.47728 1.23075 10.1585 1.23075H21.2308V9.23075C21.2308 9.57063 21.5063 9.84612 21.8462 9.84612H29.8462V29.5406Z" fill="#166CB7"/>
<path d="M8.28004 15.6184C8.07573 15.3527 7.8221 15.1802 7.51923 15.1009C7.3221 15.048 6.89904 15.0216 6.24998 15.0216H4.53723V20.3077H5.60454V18.3137H6.30048C6.78366 18.3137 7.15266 18.2884 7.40748 18.2379C7.59498 18.197 7.77948 18.1135 7.96098 17.9873C8.14247 17.8611 8.2921 17.6874 8.40991 17.4663C8.52772 17.2452 8.5866 16.9723 8.5866 16.6478C8.58654 16.2271 8.48435 15.884 8.28004 15.6184ZM7.36598 17.0733C7.28548 17.1911 7.17429 17.2776 7.03241 17.3329C6.89054 17.3882 6.60935 17.4159 6.18867 17.4159H5.60454V15.9159H6.12017C6.50479 15.9159 6.76079 15.9279 6.88816 15.9519C7.06123 15.9832 7.20429 16.0613 7.31723 16.1863C7.43023 16.3113 7.48673 16.47 7.48673 16.6622C7.48679 16.8185 7.44648 16.9555 7.36598 17.0733Z" fill="#166CB7"/>
<path d="M13.7175 16.4657C13.6022 16.128 13.4339 15.8425 13.2127 15.6094C12.9916 15.3762 12.7259 15.2139 12.4159 15.1225C12.1851 15.0552 11.8497 15.0216 11.4099 15.0216H9.45911V20.3077H11.4675C11.8618 20.3077 12.1767 20.2704 12.4122 20.1959C12.7272 20.0949 12.9772 19.9543 13.1622 19.774C13.4074 19.536 13.5961 19.2247 13.7284 18.8401C13.8365 18.5252 13.8906 18.1502 13.8906 17.7151C13.8906 17.2199 13.8329 16.8035 13.7175 16.4657ZM12.679 18.6364C12.6069 18.8732 12.5138 19.0433 12.3996 19.1466C12.2854 19.25 12.1418 19.3233 11.9687 19.3665C11.8365 19.4002 11.6214 19.417 11.3233 19.417H10.5264V15.9159H11.006C11.441 15.9159 11.7332 15.9327 11.8822 15.9664C12.0817 16.0096 12.2464 16.0925 12.3762 16.2152C12.506 16.3378 12.6069 16.5084 12.679 16.7272C12.7512 16.9459 12.7872 17.2596 12.7872 17.6683C12.7872 18.0769 12.7512 18.3996 12.679 18.6364Z" fill="#166CB7"/>
<path d="M18.4267 15.9159V15.0216H14.8029V20.3077H15.8702V18.0613H18.0769V17.167H15.8702V15.9159H18.4267Z" fill="#166CB7"/>
</svg>
